<?xml version="1.0" encoding="UTF-8" standalone="no"?>
<!DOCTYPE svg PUBLIC "-//W3C//DTD SVG 20010904//EN"
              "http://www.w3.org/TR/2001/REC-SVG-20010904/DTD/svg10.dtd">

<svg xmlns="http://www.w3.org/2000/svg"
     width="1.70667in" height="1.70667in"
     viewBox="0 0 512 512">
  <path id="Selection #1"
        fill="#171717" stroke="#171717" stroke-width="1"
        d="M 190.00,359.00
           C 193.33,351.15 201.39,342.30 206.33,335.00
             206.33,335.00 248.98,275.91 248.98,275.91
             248.98,275.91 273.74,241.00 273.74,241.00
             273.74,241.00 311.42,189.00 311.42,189.00
             311.42,189.00 325.26,170.00 325.26,170.00
             328.88,165.02 331.18,160.95 338.00,160.39
             346.58,159.69 350.56,166.14 353.58,173.00
             353.58,173.00 374.00,217.00 374.00,217.00
             374.00,217.00 379.08,228.00 379.08,228.00
             379.08,228.00 382.31,237.00 382.31,237.00
             382.31,237.00 406.69,289.00 406.69,289.00
             406.69,289.00 410.34,299.00 410.34,299.00
             410.34,299.00 432.69,347.00 432.69,347.00
             432.69,347.00 438.08,359.00 438.08,359.00
             438.08,359.00 441.31,368.00 441.31,368.00
             441.31,368.00 459.22,406.00 459.22,406.00
             459.22,406.00 474.86,442.00 474.86,442.00
             477.33,447.55 482.70,457.45 484.06,463.00
             486.12,471.42 480.00,479.62 471.00,478.43
             462.04,477.25 460.07,468.88 456.74,462.00
             456.74,462.00 446.34,440.00 446.34,440.00
             446.34,440.00 443.54,432.00 443.54,432.00
             443.54,432.00 435.25,414.00 435.25,414.00
             435.25,414.00 418.43,378.00 418.43,378.00
             418.43,378.00 411.14,360.00 411.14,360.00
             411.14,360.00 387.34,309.00 387.34,309.00
             387.34,309.00 384.54,301.00 384.54,301.00
             384.54,301.00 377.69,286.00 377.69,286.00
             377.69,286.00 359.31,247.00 359.31,247.00
             359.31,247.00 356.08,238.00 356.08,238.00
             356.08,238.00 351.14,227.00 351.14,227.00
             347.75,219.38 339.65,204.04 338.00,197.00
             338.00,197.00 336.00,197.00 336.00,197.00
             336.00,197.00 307.04,238.00 307.04,238.00
             307.04,238.00 261.74,301.00 261.74,301.00
             261.74,301.00 236.98,335.91 236.98,335.91
             236.98,335.91 213.58,368.00 213.58,368.00
             213.58,368.00 203.83,382.00 203.83,382.00
             201.95,386.25 209.59,398.56 211.74,403.00
             211.74,403.00 232.31,447.00 232.31,447.00
             232.31,447.00 238.69,460.00 238.69,460.00
             239.92,462.76 241.43,466.98 241.53,470.00
             241.77,477.46 235.47,483.42 228.00,482.43
             220.87,481.49 218.97,476.71 216.22,471.00
             216.22,471.00 203.76,445.00 203.76,445.00
             203.76,445.00 189.74,415.00 189.74,415.00
             189.74,415.00 178.25,393.00 178.25,393.00
             178.25,393.00 164.69,364.00 164.69,364.00
             164.69,364.00 146.00,323.00 146.00,323.00
             140.47,327.17 135.61,335.15 131.67,341.00
             131.67,341.00 113.67,367.00 113.67,367.00
             113.67,367.00 70.28,430.00 70.28,430.00
             70.28,430.00 56.67,449.00 56.67,449.00
             56.67,449.00 36.66,478.00 36.66,478.00
             32.80,483.57 28.74,489.45 21.00,488.43
             13.34,487.42 9.03,480.32 10.95,473.00
             12.64,466.59 27.09,447.86 31.67,441.00
             31.67,441.00 65.96,392.00 65.96,392.00
             65.96,392.00 114.86,321.00 114.86,321.00
             114.86,321.00 131.00,298.00 131.00,298.00
             135.47,291.34 139.61,284.48 149.00,286.72
             157.86,288.84 161.32,298.67 164.78,306.00
             164.78,306.00 190.00,359.00 190.00,359.00 Z" />
             
</svg>
