<?xml version="1.0" encoding="UTF-8" standalone="no"?>
<!DOCTYPE svg PUBLIC "-//W3C//DTD SVG 20010904//EN"
              "http://www.w3.org/TR/2001/REC-SVG-20010904/DTD/svg10.dtd">

<svg xmlns="http://www.w3.org/2000/svg"
     width="1.70667in" height="1.70667in"
     viewBox="0 0 512 512">
  <path id="Selection"
        fill="none" stroke="black" stroke-width="1"
        d="M 146.00,323.00
           C 140.47,327.17 135.61,335.15 131.67,341.00
             131.67,341.00 114.33,366.00 114.33,366.00
             114.33,366.00 58.04,447.00 58.04,447.00
             58.04,447.00 38.03,476.00 38.03,476.00
             34.28,481.32 31.16,487.49 24.00,488.43
             16.13,489.47 9.64,482.80 10.56,475.00
             11.31,468.63 20.72,456.37 24.77,451.00
             24.77,451.00 41.74,426.00 41.74,426.00
             41.74,426.00 80.02,371.00 80.02,371.00
             80.02,371.00 110.00,328.00 110.00,328.00
             110.00,328.00 131.67,297.00 131.67,297.00
             135.96,290.58 140.13,284.61 149.00,286.72
             156.11,288.42 160.26,295.78 163.00,302.00
             163.00,302.00 176.75,331.00 176.75,331.00
             176.75,331.00 200.31,381.00 200.31,381.00
             200.31,381.00 205.88,391.00 205.88,391.00
             205.88,391.00 231.86,446.00 231.86,446.00
             234.76,452.51 241.31,463.20 241.53,470.00
             241.77,477.46 235.47,483.42 228.00,482.43
             220.05,481.38 218.30,475.20 215.24,469.00
             215.24,469.00 196.25,429.00 196.25,429.00
             196.25,429.00 184.74,405.00 184.74,405.00
             184.74,405.00 175.00,386.00 175.00,386.00
             175.00,386.00 167.31,370.00 167.31,370.00
             167.31,370.00 155.74,345.00 155.74,345.00
             152.36,338.01 148.11,330.46 146.00,323.00 Z" />
</svg>
